<?xml version="1.0" encoding="UTF-8" standalone="no"?>
<!DOCTYPE svg PUBLIC "-//W3C//DTD SVG 1.1//EN"
 "http://www.w3.org/Graphics/SVG/1.1/DTD/svg11.dtd">
<!-- Generated by graphviz version 5.0.0 (20220707.1540)
 -->
<!-- Title: dependencies Pages: 1 -->
<svg width="678pt" height="247pt"
 viewBox="0.00 0.00 678.00 246.80" xmlns="http://www.w3.org/2000/svg" xmlns:xlink="http://www.w3.org/1999/xlink">
<g id="graph0" class="graph" transform="scale(1 1) rotate(0) translate(4 242.8)">
<title>dependencies</title>
<polygon fill="white" stroke="transparent" points="-4,4 -4,-242.8 674,-242.8 674,4 -4,4"/>
<text text-anchor="middle" x="335" y="-8.2" font-family="sans-serif" font-size="14.00">dependencies</text>
<g id="clust1" class="cluster">
<title>cluster_CoreModule</title>
<polygon fill="none" stroke="black" stroke-dasharray="1,5" points="8,-32.8 8,-230.8 662,-230.8 662,-32.8 8,-32.8"/>
</g>
<g id="clust2" class="cluster">
<title>cluster_CoreModule_declarations</title>
<polygon fill="none" stroke="black" points="126,-40.8 126,-92.8 522,-92.8 522,-40.8 126,-40.8"/>
</g>
<g id="clust7" class="cluster">
<title>cluster_CoreModule_exports</title>
<polygon fill="none" stroke="black" points="16,-170.8 16,-222.8 654,-222.8 654,-170.8 16,-170.8"/>
</g>
<!-- FooterComponent -->
<g id="node1" class="node">
<title>FooterComponent</title>
<polygon fill="#ffffb3" stroke="black" points="513.88,-84.8 396.12,-84.8 396.12,-48.8 513.88,-48.8 513.88,-84.8"/>
<text text-anchor="middle" x="455" y="-62.6" font-family="Times,serif" font-size="14.00">FooterComponent</text>
</g>
<!-- CoreModule -->
<g id="node4" class="node">
<title>CoreModule</title>
<polygon fill="#8dd3c7" stroke="black" points="360.27,-149.8 357.27,-153.8 336.27,-153.8 333.27,-149.8 273.73,-149.8 273.73,-113.8 360.27,-113.8 360.27,-149.8"/>
<text text-anchor="middle" x="317" y="-127.6" font-family="Times,serif" font-size="14.00">CoreModule</text>
</g>
<!-- FooterComponent&#45;&gt;CoreModule -->
<g id="edge1" class="edge">
<title>FooterComponent&#45;&gt;CoreModule</title>
<path fill="none" stroke="black" d="M451.34,-84.83C451.34,-101.2 451.34,-122.8 451.34,-122.8 451.34,-122.8 370.62,-122.8 370.62,-122.8"/>
<polygon fill="black" stroke="black" points="370.62,-119.3 360.62,-122.8 370.62,-126.3 370.62,-119.3"/>
</g>
<!-- HeaderComponent -->
<g id="node2" class="node">
<title>HeaderComponent</title>
<polygon fill="#ffffb3" stroke="black" points="377.75,-84.8 256.25,-84.8 256.25,-48.8 377.75,-48.8 377.75,-84.8"/>
<text text-anchor="middle" x="317" y="-62.6" font-family="Times,serif" font-size="14.00">HeaderComponent</text>
</g>
<!-- HeaderComponent&#45;&gt;CoreModule -->
<g id="edge2" class="edge">
<title>HeaderComponent&#45;&gt;CoreModule</title>
<path fill="none" stroke="black" d="M317,-84.91C317,-84.91 317,-103.79 317,-103.79"/>
<polygon fill="black" stroke="black" points="313.5,-103.79 317,-113.79 320.5,-103.79 313.5,-103.79"/>
</g>
<!-- NavComponent -->
<g id="node3" class="node">
<title>NavComponent</title>
<polygon fill="#ffffb3" stroke="black" points="238.16,-84.8 133.84,-84.8 133.84,-48.8 238.16,-48.8 238.16,-84.8"/>
<text text-anchor="middle" x="186" y="-62.6" font-family="Times,serif" font-size="14.00">NavComponent</text>
</g>
<!-- NavComponent&#45;&gt;CoreModule -->
<g id="edge3" class="edge">
<title>NavComponent&#45;&gt;CoreModule</title>
<path fill="none" stroke="black" d="M191.12,-84.83C191.12,-101.2 191.12,-122.8 191.12,-122.8 191.12,-122.8 263.68,-122.8 263.68,-122.8"/>
<polygon fill="black" stroke="black" points="263.68,-126.3 273.68,-122.8 263.68,-119.3 263.68,-126.3"/>
</g>
<!-- FooterComponent  -->
<g id="node5" class="node">
<title>FooterComponent </title>
<polygon fill="#fb8072" stroke="black" points="645.88,-214.8 524.12,-214.8 524.12,-178.8 645.88,-178.8 645.88,-214.8"/>
<text text-anchor="middle" x="585" y="-192.6" font-family="Times,serif" font-size="14.00">FooterComponent </text>
</g>
<!-- CoreModule&#45;&gt;FooterComponent  -->
<g id="edge4" class="edge">
<title>CoreModule&#45;&gt;FooterComponent </title>
<path fill="none" stroke="black" stroke-dasharray="5,2" d="M360.36,-131.8C436.21,-131.8 585,-131.8 585,-131.8 585,-131.8 585,-168.69 585,-168.69"/>
<polygon fill="black" stroke="black" points="581.5,-168.69 585,-178.69 588.5,-168.69 581.5,-168.69"/>
</g>
<!-- HeaderComponent  -->
<g id="node6" class="node">
<title>HeaderComponent </title>
<polygon fill="#fb8072" stroke="black" points="506.75,-214.8 381.25,-214.8 381.25,-178.8 506.75,-178.8 506.75,-214.8"/>
<text text-anchor="middle" x="444" y="-192.6" font-family="Times,serif" font-size="14.00">HeaderComponent </text>
</g>
<!-- CoreModule&#45;&gt;HeaderComponent  -->
<g id="edge5" class="edge">
<title>CoreModule&#45;&gt;HeaderComponent </title>
<path fill="none" stroke="black" stroke-dasharray="5,2" d="M360.37,-140.8C375.48,-140.8 388.72,-140.8 388.72,-140.8 388.72,-140.8 388.72,-168.77 388.72,-168.77"/>
<polygon fill="black" stroke="black" points="385.22,-168.77 388.72,-178.77 392.22,-168.77 385.22,-168.77"/>
</g>
<!-- IconsModule  -->
<g id="node7" class="node">
<title>IconsModule </title>
<polygon fill="#fb8072" stroke="black" points="363.88,-214.8 270.12,-214.8 270.12,-178.8 363.88,-178.8 363.88,-214.8"/>
<text text-anchor="middle" x="317" y="-192.6" font-family="Times,serif" font-size="14.00">IconsModule </text>
</g>
<!-- CoreModule&#45;&gt;IconsModule  -->
<g id="edge6" class="edge">
<title>CoreModule&#45;&gt;IconsModule </title>
<path fill="none" stroke="black" stroke-dasharray="5,2" d="M317,-149.91C317,-149.91 317,-168.79 317,-168.79"/>
<polygon fill="black" stroke="black" points="313.5,-168.79 317,-178.79 320.5,-168.79 313.5,-168.79"/>
</g>
<!-- NavComponent  -->
<g id="node8" class="node">
<title>NavComponent </title>
<polygon fill="#fb8072" stroke="black" points="252.16,-214.8 143.84,-214.8 143.84,-178.8 252.16,-178.8 252.16,-214.8"/>
<text text-anchor="middle" x="198" y="-192.6" font-family="Times,serif" font-size="14.00">NavComponent </text>
</g>
<!-- CoreModule&#45;&gt;NavComponent  -->
<g id="edge7" class="edge">
<title>CoreModule&#45;&gt;NavComponent </title>
<path fill="none" stroke="black" stroke-dasharray="5,2" d="M273.58,-140.8C258.46,-140.8 245.2,-140.8 245.2,-140.8 245.2,-140.8 245.2,-168.77 245.2,-168.77"/>
<polygon fill="black" stroke="black" points="241.7,-168.77 245.2,-178.77 248.7,-168.77 241.7,-168.77"/>
</g>
<!-- OrdersModule  -->
<g id="node9" class="node">
<title>OrdersModule </title>
<polygon fill="#fb8072" stroke="black" points="125.65,-214.8 24.35,-214.8 24.35,-178.8 125.65,-178.8 125.65,-214.8"/>
<text text-anchor="middle" x="75" y="-192.6" font-family="Times,serif" font-size="14.00">OrdersModule </text>
</g>
<!-- CoreModule&#45;&gt;OrdersModule  -->
<g id="edge8" class="edge">
<title>CoreModule&#45;&gt;OrdersModule </title>
<path fill="none" stroke="black" stroke-dasharray="5,2" d="M273.46,-131.8C203.78,-131.8 75,-131.8 75,-131.8 75,-131.8 75,-168.69 75,-168.69"/>
<polygon fill="black" stroke="black" points="71.5,-168.69 75,-178.69 78.5,-168.69 71.5,-168.69"/>
</g>
</g>
</svg>
