<?xml version="1.0" encoding="UTF-8" standalone="no"?>
<!DOCTYPE svg PUBLIC "-//W3C//DTD SVG 1.1//EN"
 "http://www.w3.org/Graphics/SVG/1.1/DTD/svg11.dtd">
<!-- Generated by graphviz version 5.0.0 (20220707.1540)
 -->
<!-- Title: dependencies Pages: 1 -->
<svg width="349pt" height="247pt"
 viewBox="0.00 0.00 349.00 246.80" xmlns="http://www.w3.org/2000/svg" xmlns:xlink="http://www.w3.org/1999/xlink">
<g id="graph0" class="graph" transform="scale(1 1) rotate(0) translate(4 242.8)">
<title>dependencies</title>
<polygon fill="white" stroke="transparent" points="-4,4 -4,-242.8 345,-242.8 345,4 -4,4"/>
<text text-anchor="middle" x="170.5" y="-8.2" font-family="sans-serif" font-size="14.00">dependencies</text>
<g id="clust1" class="cluster">
<title>cluster_IconsModule</title>
<polygon fill="none" stroke="black" stroke-dasharray="1,5" points="8,-32.8 8,-230.8 333,-230.8 333,-32.8 8,-32.8"/>
</g>
<g id="clust6" class="cluster">
<title>cluster_IconsModule_exports</title>
<polygon fill="none" stroke="black" points="16,-170.8 16,-222.8 325,-222.8 325,-170.8 16,-170.8"/>
</g>
<g id="clust2" class="cluster">
<title>cluster_IconsModule_declarations</title>
<polygon fill="none" stroke="black" points="20,-40.8 20,-92.8 322,-92.8 322,-40.8 20,-40.8"/>
</g>
<!-- IconCloseComponent -->
<g id="node1" class="node">
<title>IconCloseComponent</title>
<polygon fill="#ffffb3" stroke="black" points="314.1,-84.8 175.9,-84.8 175.9,-48.8 314.1,-48.8 314.1,-84.8"/>
<text text-anchor="middle" x="245" y="-62.6" font-family="Times,serif" font-size="14.00">IconCloseComponent</text>
</g>
<!-- IconsModule -->
<g id="node3" class="node">
<title>IconsModule</title>
<polygon fill="#8dd3c7" stroke="black" points="138.88,-149.8 135.88,-153.8 114.88,-153.8 111.88,-149.8 49.12,-149.8 49.12,-113.8 138.88,-113.8 138.88,-149.8"/>
<text text-anchor="middle" x="94" y="-127.6" font-family="Times,serif" font-size="14.00">IconsModule</text>
</g>
<!-- IconCloseComponent&#45;&gt;IconsModule -->
<g id="edge1" class="edge">
<title>IconCloseComponent&#45;&gt;IconsModule</title>
<path fill="none" stroke="black" d="M268.02,-84.82C268.02,-102.17 268.02,-125.8 268.02,-125.8 268.02,-125.8 149.27,-125.8 149.27,-125.8"/>
<polygon fill="black" stroke="black" points="149.27,-122.3 139.27,-125.8 149.27,-129.3 149.27,-122.3"/>
</g>
<!-- IconNavComponent -->
<g id="node2" class="node">
<title>IconNavComponent</title>
<polygon fill="#ffffb3" stroke="black" points="157.53,-84.8 28.47,-84.8 28.47,-48.8 157.53,-48.8 157.53,-84.8"/>
<text text-anchor="middle" x="93" y="-62.6" font-family="Times,serif" font-size="14.00">IconNavComponent</text>
</g>
<!-- IconNavComponent&#45;&gt;IconsModule -->
<g id="edge2" class="edge">
<title>IconNavComponent&#45;&gt;IconsModule</title>
<path fill="none" stroke="black" d="M94,-84.91C94,-84.91 94,-103.79 94,-103.79"/>
<polygon fill="black" stroke="black" points="90.5,-103.79 94,-113.79 97.5,-103.79 90.5,-103.79"/>
</g>
<!-- IconCloseComponent  -->
<g id="node4" class="node">
<title>IconCloseComponent </title>
<polygon fill="#fb8072" stroke="black" points="316.6,-214.8 175.4,-214.8 175.4,-178.8 316.6,-178.8 316.6,-214.8"/>
<text text-anchor="middle" x="246" y="-192.6" font-family="Times,serif" font-size="14.00">IconCloseComponent </text>
</g>
<!-- IconsModule&#45;&gt;IconCloseComponent  -->
<g id="edge3" class="edge">
<title>IconsModule&#45;&gt;IconCloseComponent </title>
<path fill="none" stroke="black" stroke-dasharray="5,2" d="M139.12,-137.8C175.97,-137.8 221.98,-137.8 221.98,-137.8 221.98,-137.8 221.98,-168.78 221.98,-168.78"/>
<polygon fill="black" stroke="black" points="218.48,-168.78 221.98,-178.78 225.48,-168.78 218.48,-168.78"/>
</g>
<!-- IconNavComponent  -->
<g id="node5" class="node">
<title>IconNavComponent </title>
<polygon fill="#fb8072" stroke="black" points="157.53,-214.8 24.47,-214.8 24.47,-178.8 157.53,-178.8 157.53,-214.8"/>
<text text-anchor="middle" x="91" y="-192.6" font-family="Times,serif" font-size="14.00">IconNavComponent </text>
</g>
<!-- IconsModule&#45;&gt;IconNavComponent  -->
<g id="edge4" class="edge">
<title>IconsModule&#45;&gt;IconNavComponent </title>
<path fill="none" stroke="black" stroke-dasharray="5,2" d="M94,-149.91C94,-149.91 94,-168.79 94,-168.79"/>
<polygon fill="black" stroke="black" points="90.5,-168.79 94,-178.79 97.5,-168.79 90.5,-168.79"/>
</g>
</g>
</svg>
